# xmcd
#
# Track frame offsets:
#	150
#	11415
#	28265
#	45047
#	61962
#	77685
#	93632
#	110150
#	125795
#	143222
#	157410
#	171902
#	187762
#	203387
#	214762
#
# Disc length: 3075 seconds
#
# Revision: 1
# Processed by: cddbd v1.4b41PL1 Copyright (c) Steve Scherf et al.
# Submitted via: audiograbber 1.80
#
DISCID=cd0c010f
DTITLE=The Judds - Give a little love
DYEAR=1900
DGENRE=
TTITLE0=Don't be cruel
TTITLE1=I'm Falling in love tonight
TTITLE2=Turn it loos
TTITLE3=Old pictures
TTITLE4=Cow cow boogie
TTITLE5=Maybe your baby's got the blues
TTITLE6=I know where I'm going
TTITLE7=Why don't you believe me
TTITLE8=The Sweetest gift
TTITLE9=Give a little love to me
TTITLE10=Had a dream (for the heart)
TTITLE11=John Deere tractor
TTITLE12=Isn't he a strange one
TTITLE13=Blue nun cafe
TTITLE14=Change of heart
EXTD=
EXTT0=
EXTT1=
EXTT2=
EXTT3=
EXTT4=
EXTT5=
EXTT6=
EXTT7=
EXTT8=
EXTT9=
EXTT10=
EXTT11=
EXTT12=
EXTT13=
EXTT14=
PLAYORDER=
